<mxfile host="app.diagrams.net" modified="2023-09-04T10:39:51.924Z" agent="Mozilla/5.0 (Windows NT 10.0; Win64; x64) AppleWebKit/537.36 (KHTML, like Gecko) Chrome/116.0.0.0 Safari/537.36" etag="JKbeTzGIQA08JNCai_C2" version="21.7.2" type="github">
  <diagram name="Page-1" id="_SAod9RHWYE_MMCVX3rx">
    <mxGraphModel dx="1323" dy="760" grid="1" gridSize="10" guides="1" tooltips="1" connect="1" arrows="1" fold="1" page="1" pageScale="1" pageWidth="850" pageHeight="1100" background="#a6bfce" math="0" shadow="0">
      <root>
        <mxCell id="0" />
        <mxCell id="1" parent="0" />
        <mxCell id="ci-PLa6EwDB16WFjHaPu-5" value="" style="edgeStyle=orthogonalEdgeStyle;rounded=0;orthogonalLoop=1;jettySize=auto;html=1;" edge="1" parent="1" source="ci-PLa6EwDB16WFjHaPu-1" target="ci-PLa6EwDB16WFjHaPu-4">
          <mxGeometry relative="1" as="geometry" />
        </mxCell>
        <mxCell id="ci-PLa6EwDB16WFjHaPu-1" value="Start" style="ellipse;whiteSpace=wrap;html=1;" vertex="1" parent="1">
          <mxGeometry x="360" y="20" width="130" height="80" as="geometry" />
        </mxCell>
        <mxCell id="ci-PLa6EwDB16WFjHaPu-4" value="Make the dictionary for the cards and their values" style="whiteSpace=wrap;html=1;" vertex="1" parent="1">
          <mxGeometry x="365" y="190" width="120" height="60" as="geometry" />
        </mxCell>
      </root>
    </mxGraphModel>
  </diagram>
</mxfile>
